<html>
<head>
<meta charset="UTF-8">
<meta name="viewport" content="width=device-width, initial-scale=1.0"/>

<style>
.comment
{
    padding-left: 20px;
    margin-top: 4px;
    margin-right: 4px;
    margin-bottom: 4px;
    border: 2px #000 solid;
}
.submission
{
    border: 4px #00f solid;
    padding-left: 20px;
}
.hidden
{
    display: none;
}
</style>
</head>
<body><div class="submission" id="t3_7uu4er">
    <p class="userinfo">
        <a href="https://www.reddit.com/u/TheCrach">TheCrach</a>
        <span class="score"> | 52 points</span>
        <span class="timestamp"> | Feb 02 2018 20:10:22</span>
    </p>
    <strong>[MOVIE] The Wolf of Wall Street (2013) BluRay.1080p.x265.10bit-z97 (4.82 GB)</strong>
    <p><p><strong><a href="http://links.snahp.it/538oJrRUJNQrnAM9sycXvTpFUbIJva8A8">MEGA</a></strong></p>
<pre><code>Video
ID                             : 1
Format                         : HEVC
Format profile                 : Main 10@L4@Main
Duration                       : 2 h 59 min
Bit rate                       : 3 279 kb/s
Width                          : 1 920 pixels
Height                         : 800 pixels
Display aspect ratio           : 2.40:1
Frame rate mode                : Constant
Frame rate                     : 23.976 (24000/1001) FPS
Color space                    : YUV
Chroma subsampling             : 4:2:0
Bit depth                      : 10 bits
Stream size                    : 4.12 GiB (85%)
Writing library                : x265 2.6+7 [64 bit] 10bit
Language                       : English
Default                        : Yes

Audio
ID                             : 2
Format                         : AC-3
Duration                       : 2 h 59 min
Bit rate mode                  : Constant
Bit rate                       : 448 kb/s
Channel(s)                     : 6 channels
Channel positions              : Front: L C R, Side: L R, LFE
Sampling rate                  : 48.0 kHz
Frame rate                     : 31.250 FPS (1536 SPF)
Bit depth                      : 16 bits
Compression mode               : Lossy
Stream size                    : 576 MiB (12%)
Language                       : English
Service kind                   : Complete Main
Default                        : Yes
</code></pre></p>
    <p class="toolbar">
        <a href="https://www.reddit.com/r/megalinks/comments/7uu4er">permalink</a>
    </p>
</div>
<div class="comment" id="t1_dtn63qs">
    <p class="userinfo">
        <a
        class="toggle_hide_button"
        href="javascript:void(0)"
        onclick="toggle_collapse(this.parentElement.parentElement)">[-]
        </a>
        <a href="https://www.reddit.com/u/SubZorro">SubZorro</a>
        <span class="score"> | 1 points</span>
        <span class="timestamp"> | Feb 02 2018 20:24:16</span>
    </p>
    <div class="collapsible">
        <h5>Subtitles for this movie:</h5>
<hr>
<blockquote>
<ul>
<li>
<p><strong>The Wolf of Wall Street 2013 DVDScr x264-HaM</strong> - <code>1 CD</code> - <a href="http://dl.opensubtitles.org/en/download/vrf-51282098/sub/5485333">Download Subtitle</a></p>
</li>
<li>
<p><strong>The Wolf of Wall Street (2013)</strong> - <code>1 CD</code> - <a href="http://dl.opensubtitles.org/en/download/vrf-be5ce57b/sub/6184070">Download Subtitle</a></p>
</li>
<li>
<p><strong>The Wolf of Wall Street 2013 DVDScr XVID AC3 ACAB</strong> - <code>1 CD</code> - <a href="http://dl.opensubtitles.org/en/download/vrf-613af6c3/sub/5486072">Download Subtitle</a></p>
</li>
<li>
<p><strong>The.Wolf.of.Wall.Street.2013.BluRay.720p.x264.DTS-HDWinG.german.srt</strong> - <code>1 CD</code> - <a href="http://dl.opensubtitles.org/en/download/vrf-a5a12531/sub/5761832">Download Subtitle</a></p>
</li>
<li>
<p><strong>The Wolf of Wall Street (CC)</strong> - <code>1 CD</code> - <a href="http://dl.opensubtitles.org/en/download/vrf-4688d459/sub/5599620">Download Subtitle</a></p>
</li>
<li>
<p><strong>The Wolf of Wall Street 2013 DVDScr XVID AC3 Bida</strong> - <code>1 CD</code> - <a href="http://dl.opensubtitles.org/en/download/vrf-111ef45d/sub/5488847">Download Subtitle</a></p>
</li>
<li>
<p><strong>The.Wolf.of.Wall.Street (2013).DVDScr.XviD-BiDA</strong> - <code>1 CD</code> - <a href="http://dl.opensubtitles.org/en/download/vrf-c2006104/sub/5486795">Download Subtitle</a></p>
</li>
<li>
<p><strong>The.Wolf.of.Wall.Street.2013.720p.BluRay.x264.YIFY</strong> - <code>1 CD</code> - <a href="http://dl.opensubtitles.org/en/download/vrf-30431503/sub/5582943">Download Subtitle</a></p>
</li>
</ul>
</blockquote>
<hr>
<p>^This ^list ^of ^subtitles ^are ^taken ^from <a href="http://www.opensubtitles.org">^opensubtitles.org</a> ^| ^For ^feedback ^or ^suggestions ^contact <a href="http://www.reddit.com/message/compose/?to=indigo6alpha">^/u/indigo6alpha</a></p>
        <p class="toolbar">
            <a href="https://www.reddit.com/r/megalinks/comments/7uu4er/_/dtn63qs">permalink</a>
        </p>
        
    </div>
</div>
</body>

<script>
function toggle_collapse(comment_div)
{
    var button = comment_div.getElementsByClassName("toggle_hide_button")[0];
    var collapsible = comment_div.getElementsByClassName("collapsible")[0];
    if (collapsible.classList.contains("hidden"))
    {
        collapsible.classList.remove("hidden");
        button.innerText = "[-]";
    }
    else
    {
        collapsible.classList.add("hidden");
        button.innerText = "[+]";
    }
}
</script>
</html>
